<svg xmlns="http://www.w3.org/2000/svg" viewBox="0 0 64 64" role="img" aria-label="Raven icon">
  <defs>
    <linearGradient id="bg" x1="0" y1="0" x2="1" y2="1">
      <stop offset="0" stop-color="#f6f1e8" />
      <stop offset="1" stop-color="#e8d9c4" />
    </linearGradient>
    <linearGradient id="raven" x1="0" y1="0" x2="1" y2="1">
      <stop offset="0" stop-color="#2a2622" />
      <stop offset="1" stop-color="#100f0d" />
    </linearGradient>
  </defs>

  <rect x="2" y="2" width="60" height="60" rx="14" fill="url(#bg)" />

  <path
    d="M10 42 C14 34, 21 29, 28 27 C31 22, 38 18, 45 19 C42 22, 41 25, 42 28 C49 28, 55 30, 58 35 C53 34, 48 35, 45 37 C42 39, 38 42, 33 45 C27 48, 18 49, 10 42 Z"
    fill="url(#raven)"
  />

  <path
    d="M45 19 C52 20, 57 23, 60 27 C54 27, 49 28, 45 30 C43 31, 40 31, 37 30 C41 27, 43 24, 45 19 Z"
    fill="#171513"
  />

  <path
    d="M19 38 C24 40, 29 40, 34 38 C31 42, 27 45, 21 46 C17 45, 16 41, 19 38 Z"
    fill="#0e0d0c"
    opacity="0.9"
  />

  <circle cx="35.8" cy="25.8" r="1.9" fill="#efe4d4" />
  <circle cx="36.1" cy="25.8" r="0.9" fill="#12110f" />
</svg>