<svg xmlns="http://www.w3.org/2000/svg" viewBox="0 0 64 64" role="img" aria-label="Raven icon">
  <defs>
    <linearGradient id="bg" x1="0" y1="0" x2="1" y2="1">
      <stop offset="0" stop-color="#f6f1e8" />
      <stop offset="1" stop-color="#e8d9c4" />
    </linearGradient>
    <linearGradient id="raven" x1="0" y1="0" x2="1" y2="1">
      <stop offset="0" stop-color="#2a2622" />
      <stop offset="1" stop-color="#100f0d" />
    </linearGradient>
  </defs>

  <rect x="2" y="2" width="60" height="60" rx="14" fill="url(#bg)" />

  <path d="M11 47 H54" stroke="#bca98e" stroke-width="2" stroke-linecap="round" />

  <path
    d="M18 43 C16 37, 17 31, 21 27 C25 23, 31 22, 37 24 C40 20, 46 19, 52 21 C48 23, 46 25, 45 28 C50 29, 54 31, 56 35 C51 34, 47 35, 43 38 C40 41, 36 44, 31 47 C26 50, 21 49, 18 43 Z"
    fill="url(#raven)"
  />

  <path
    d="M44 20 C50 20, 56 23, 59 27 C53 27, 49 28, 45 30 C43 31, 40 31, 37 30 C40 27, 42 24, 44 20 Z"
    fill="#171513"
  />

  <path
    d="M23 30 C27 27, 33 27, 37 30 C34 35, 30 39, 24 41 C22 37, 21 33, 23 30 Z"
    fill="#0e0d0c"
    opacity="0.9"
  />

  <path d="M25 45 L20 49 L27 48 Z" fill="#120f0d" />

  <path d="M30 47 L29 52" stroke="#1a1714" stroke-width="1.8" stroke-linecap="round" />
  <path d="M34 46 L33 51" stroke="#1a1714" stroke-width="1.8" stroke-linecap="round" />

  <circle cx="35.8" cy="25.8" r="1.9" fill="#efe4d4" />
  <circle cx="36.1" cy="25.8" r="0.9" fill="#12110f" />
</svg>